<svg width="80" height="72" viewBox="0 0 80 72" fill="none" xmlns="http://www.w3.org/2000/svg">
<path d="M22.0981 51.2293L7.91248 44.1312L22.0981 37.0331V51.2293Z" stroke="white" stroke-width="2"/>
<path d="M22.0981 34.197L7.91248 27.099L22.0981 20.0009V34.197Z" stroke="white" stroke-width="2"/>
<path d="M39.1313 25.6804L24.9457 18.5824L39.1313 11.4843V25.6804Z" stroke="white" stroke-width="2"/>
<path d="M56.1626 34.197L41.9769 27.099L56.1626 20.0009V34.197Z" stroke="white" stroke-width="2"/>
<path d="M73.1958 42.7131L59.0101 35.6151L73.1958 28.517V42.7131Z" stroke="white" stroke-width="2"/>
<path d="M56.1626 51.2293L41.9769 44.1312L56.1626 37.0331V51.2293Z" stroke="white" stroke-width="2"/>
<path d="M39.1313 59.7468L24.9457 52.6488L39.1313 45.5507V59.7468Z" stroke="white" stroke-width="2"/>
<path d="M56.1626 68.2629L41.9769 61.1649L56.1626 54.0668V68.2629Z" stroke="white" stroke-width="2"/>
<path d="M6.80815 28.5178L20.9938 35.6159L6.80815 42.7139L6.80815 28.5178Z" stroke="white" stroke-width="2"/>
<path d="M23.8414 37.0339L38.027 44.132L23.8414 51.2301L23.8414 37.0339Z" stroke="white" stroke-width="2"/>
<path d="M40.8726 45.55L55.0582 52.6481L40.8726 59.7462V45.55Z" stroke="white" stroke-width="2"/>
<path d="M23.8414 19.9993L38.027 27.0973L23.8414 34.1954L23.8414 19.9993Z" stroke="white" stroke-width="2"/>
<path d="M23.3414 2.15775L39.1443 10.0651L23.3414 17.9724L23.3414 2.15775Z" stroke="#292929"/>
<path d="M23.8414 2.96704L38.027 10.0651L23.8414 17.1632L23.8414 2.96704Z" stroke="white" stroke-width="2"/>
<path d="M40.8726 11.4832L55.0582 18.5812L40.8726 25.6793V11.4832Z" stroke="white" stroke-width="2"/>
<path d="M57.9058 37.0339L72.0914 44.132L57.9058 51.2301V37.0339Z" stroke="white" stroke-width="2"/>
<path d="M57.9058 19.9993L72.0914 27.0973L57.9058 34.1954V19.9993Z" stroke="white" stroke-width="2"/>
</svg>
